<?xml version="1.0" encoding="iso-8859-1"?>
<!-- Generator: Adobe Illustrator 19.0.0, SVG Export Plug-In . SVG Version: 6.00 Build 0)  -->
<svg version="1.1" id="Capa_1" xmlns="http://www.w3.org/2000/svg" xmlns:xlink="http://www.w3.org/1999/xlink" x="0px" y="0px"
	 viewBox="0 0 469.333 469.333" style="enable-background:new 0 0 469.333 469.333;" xml:space="preserve">
<g>
	<path style="fill:#607D8B;" d="M96,202.667c-5.891,0-10.667-4.776-10.667-10.667v-85.333C85.333,100.776,90.109,96,96,96
		c5.891,0,10.667,4.776,10.667,10.667V192C106.667,197.891,101.891,202.667,96,202.667z"/>
	<path style="fill:#607D8B;" d="M373.333,202.667c-5.891,0-10.667-4.776-10.667-10.667v-85.333c0-5.891,4.776-10.667,10.667-10.667
		S384,100.776,384,106.667V192C384,197.891,379.224,202.667,373.333,202.667z"/>
</g>
<path style="fill:#FFC107;" d="M53.333,181.333H416c29.455,0,53.333,23.878,53.333,53.333v128C469.333,392.122,445.455,416,416,416
	H53.333C23.878,416,0,392.122,0,362.667v-128C0,205.211,23.878,181.333,53.333,181.333z"/>
<g>
	<path style="fill:#FAFAFA;" d="M117.333,245.333c5.891,0,10.667-4.776,10.667-10.667S123.224,224,117.333,224h-64
		c-5.891,0-10.667,4.776-10.667,10.667v128c0,5.891,4.776,10.667,10.667,10.667h64c5.891,0,10.667-4.776,10.667-10.667
		c0-5.891-4.776-10.667-10.667-10.667H64v-42.667h32c5.891,0,10.667-4.776,10.667-10.667c0-5.891-4.776-10.667-10.667-10.667H64
		v-42.667H117.333z"/>
	<path style="fill:#FAFAFA;" d="M251.243,225.792c-4.902-3.261-11.519-1.934-14.784,2.965l-33.792,50.709l-33.792-50.709
		c-3.27-4.901-9.893-6.224-14.795-2.955c-4.901,3.27-6.224,9.893-2.955,14.795l38.741,58.069l-38.741,58.091
		c-3.27,4.901-1.947,11.525,2.955,14.795c4.901,3.27,11.525,1.947,14.795-2.955l33.792-50.731l33.792,50.688
		c3.27,4.901,9.893,6.224,14.795,2.955s6.224-9.893,2.955-14.795l-38.741-58.048l38.72-58.091
		C257.452,235.68,256.134,229.064,251.243,225.792z"/>
	<path style="fill:#FAFAFA;" d="M288,224c-5.891,0-10.667,4.776-10.667,10.667v128c0,5.891,4.776,10.667,10.667,10.667
		c5.891,0,10.667-4.776,10.667-10.667v-128C298.667,228.776,293.891,224,288,224z"/>
	<path style="fill:#FAFAFA;" d="M416,224h-85.333c-5.891,0-10.667,4.776-10.667,10.667s4.776,10.667,10.667,10.667h32v117.333
		c0,5.891,4.776,10.667,10.667,10.667S384,368.558,384,362.667V245.333h32c5.891,0,10.667-4.776,10.667-10.667S421.891,224,416,224z
		"/>
</g>
<g>
	<path style="fill:#455A64;" d="M160,53.333H32c-5.891,0-10.667,4.776-10.667,10.667c0,29.455,23.878,53.333,53.333,53.333h42.667
		c29.455,0,53.333-23.878,53.333-53.333C170.667,58.109,165.891,53.333,160,53.333z"/>
	<path style="fill:#455A64;" d="M437.333,53.333h-128c-5.891,0-10.667,4.776-10.667,10.667c0,29.455,23.878,53.333,53.333,53.333
		h42.667C424.122,117.333,448,93.455,448,64C448,58.109,443.224,53.333,437.333,53.333z"/>
</g>
<g>
</g>
<g>
</g>
<g>
</g>
<g>
</g>
<g>
</g>
<g>
</g>
<g>
</g>
<g>
</g>
<g>
</g>
<g>
</g>
<g>
</g>
<g>
</g>
<g>
</g>
<g>
</g>
<g>
</g>
</svg>
